# xmcd
#
# Track frame offsets:
#	150
#	14568
#	30555
#	44398
#	58820
#	75230
#	93208
#	105605
#	124183
#	143208
#	163820
#
# Disc length: 2368 seconds
#
# Revision: 1
# Processed by: cddbd v1.4PL0 Copyright (c) Steve Scherf et al.
# Submitted via: EasyCDDAExtractor 5.1.0
#
DISCID=8a093e0b
DTITLE=Various Artist - Boogie-D Boogie-D, Gary Bass and The EBS All Star Blues
DTITLE=Band
DYEAR=1900
DGENRE=Blues
TTITLE0=Gary Bass and The EBS All Star Blues Band - Soothe Me
TTITLE1=Gary Bass and The EBS All Star Blues Band - Open The Door To Your Heart
TTITLE2=Gary Bass and The EBS All Star Blues Band - You Don't Know What You Mean
TTITLE2=To Me
TTITLE3=Gary Bass and The EBS All Star Blues Band - Put It Where You Want It
TTITLE4=Gary Bass and The EBS All Star Blues Band - Make You Feel Love Again
TTITLE5=Gary Bass and The EBS All Star Blues Band - Next Time You See Me
TTITLE6=Gary Bass and The EBS All Star Blues Band - Red Sails In The Sunset
TTITLE7=Gary Bass and The EBS All Star Blues Band - Since I've Been Loving You
TTITLE8=Gary Bass, Soul Patrol and The EBS All Star Blues Band - Shake Rattle An
TTITLE8=d Roll
TTITLE9=Gary Bass and Nappy Brown &The EBS All Star Blues Band - Mama Talk To Yo
TTITLE9=ur Daughter
TTITLE10=Gary Bass and The Clovers  - All About You
EXTD=
EXTT0=
EXTT1=
EXTT2=
EXTT3=
EXTT4=
EXTT5=
EXTT6=
EXTT7=
EXTT8=
EXTT9=
EXTT10=
PLAYORDER=
